<?xml version="1.0" encoding="iso-8859-1"?>
<!-- Generator: Adobe Illustrator 19.0.0, SVG Export Plug-In . SVG Version: 6.00 Build 0)  -->
<svg version="1.1" id="Capa_1" xmlns="http://www.w3.org/2000/svg" xmlns:xlink="http://www.w3.org/1999/xlink" x="0px" y="0px"
	 viewBox="0 0 57 57" style="enable-background:new 0 0 57 57;" xml:space="preserve">
<g>
	<g>
		<path d="M55.5,39h-11V27c0-0.552-0.448-1-1-1h-2v-6h-2v6h-11V12c0-0.552-0.448-1-1-1h-3V1c0-0.552-0.448-1-1-1h-8
			c-0.552,0-1,0.448-1,1v10h-4c-0.552,0-1,0.448-1,1v24h-8c-0.552,0-1,0.448-1,1v19c0,0.552,0.448,1,1,1h23c0.552,0,1-0.448,1-1v-3
			h9v1c0,0.552,0.448,1,1,1h20c0.552,0,1-0.448,1-1V40C56.5,39.448,56.052,39,55.5,39z M16.5,2h6v9h-6V2z M11.5,13h4h8h3v13h-2
			c-0.552,0-1,0.448-1,1v1h-9v2h9v6h-12V13z M23.5,55h-21V38h8h13v14V55z M34.5,40h-7v2h7v2h-7v2h7v5h-9V37v-9h1h2h11h2h1v11h-7
			C34.948,39,34.5,39.448,34.5,40z M54.5,53h-18V41h18V53z"/>
		<rect x="14.5" y="16" width="9" height="2"/>
		<rect x="14.5" y="20" width="9" height="2"/>
		<rect x="14.5" y="24" width="9" height="2"/>
		<rect x="5.5" y="39" width="15" height="2"/>
		<rect x="27.5" y="36" width="13" height="2"/>
		<rect x="27.5" y="32" width="13" height="2"/>
		<rect x="5.5" y="43" width="15" height="2"/>
		<rect x="38.5" y="43" width="14" height="2"/>
	</g>
</g>
<g>
</g>
<g>
</g>
<g>
</g>
<g>
</g>
<g>
</g>
<g>
</g>
<g>
</g>
<g>
</g>
<g>
</g>
<g>
</g>
<g>
</g>
<g>
</g>
<g>
</g>
<g>
</g>
<g>
</g>
</svg>
