<?xml version="1.0" encoding="iso-8859-1"?>
<!-- Generator: Adobe Illustrator 19.0.0, SVG Export Plug-In . SVG Version: 6.00 Build 0)  -->
<svg version="1.1" id="Capa_1" xmlns="http://www.w3.org/2000/svg" xmlns:xlink="http://www.w3.org/1999/xlink" x="0px" y="0px"
	 viewBox="0 0 39.794 39.794" style="enable-background:new 0 0 39.794 39.794;" xml:space="preserve">
<g>
	<path d="M38.795,39.794c-0.029,0-0.057-0.001-0.086-0.004L10.07,37.315c-0.388-0.033-0.72-0.288-0.854-0.654
		c-0.133-0.365-0.042-0.774,0.232-1.049l6.001-6L0.603,8.826c-0.927-1.297-0.769-3.197,0.359-4.325l3.539-3.539
		c1.127-1.128,3.027-1.286,4.324-0.359L29.612,15.45l6-6c0.275-0.276,0.686-0.366,1.049-0.232c0.366,0.133,0.621,0.466,0.654,0.854
		l2.475,28.638c0.025,0.294-0.08,0.584-0.289,0.793C39.313,39.69,39.059,39.794,38.795,39.794z M12.382,35.508l25.314,2.188
		l-2.188-25.314l-5.081,5.081c-0.345,0.346-0.89,0.391-1.288,0.107L7.664,2.231C7.166,1.875,6.35,1.943,5.916,2.376L2.377,5.916
		c-0.434,0.434-0.502,1.25-0.146,1.748L17.57,29.139c0.284,0.397,0.239,0.942-0.107,1.288L12.382,35.508z"/>
</g>
<g>
</g>
<g>
</g>
<g>
</g>
<g>
</g>
<g>
</g>
<g>
</g>
<g>
</g>
<g>
</g>
<g>
</g>
<g>
</g>
<g>
</g>
<g>
</g>
<g>
</g>
<g>
</g>
<g>
</g>
</svg>
